# xmcd
#
# Track frame offsets:
#	150
#	12527
#	29467
#	47655
#	58822
#	77070
#	94097
#	114567
#	134035
#	145952
#	167430
#	180617
#	207957
#	219502
#	232725
#	253575
#
# Disc length: 3577 seconds
#
# Revision: 2
# Processed by: cddbd v1.5.1PL0 Copyright (c) Steve Scherf et al.
# Submitted via: audiograbber 1.83.01
#
DISCID=e10df710
DTITLE=new orleans stompers - tells about old times
DYEAR=1994
DGENRE=Jazz
TTITLE0=new orleans stomp
TTITLE1=toot toot tootsie
TTITLE2=jelly bean blues
TTITLE3=copenhagen
TTITLE4=creole love call
TTITLE5=all alone by the telephone
TTITLE6=ain't missbehaven
TTITLE7=somebody stole my gal
TTITLE8=at the jazz band ball
TTITLE9=burgundy street blues
TTITLE10=my little ragtime baby
TTITLE11=just a closer walk with thee
TTITLE12=original charleston strutt
TTITLE13=apex blues
TTITLE14=wrought iron rag
TTITLE15=muskrat ramble
EXTD=YEAR: 1994
EXTT0=
EXTT1=
EXTT2=
EXTT3=
EXTT4=
EXTT5=
EXTT6=
EXTT7=
EXTT8=
EXTT9=
EXTT10=
EXTT11=
EXTT12=
EXTT13=
EXTT14=
EXTT15=
PLAYORDER=
